# xmcd CD database file
#
# Track frame offsets:
#	150
#	15151
#	29418
#	41001
#	53998
#	64488
#	78023
#	92097
#	104121
#	117262
#	129233
#	141927
#	154566
#	166241
#	179081
#	192509
#	206251
#	217858
#	229405
#	242556
#
# Disc length: 3411 seconds
#
# Revision: 1
# Processed by: cddbd v1.5.2PL0 Copyright (c) Steve Scherf et al.
# Submitted via: CDex 1.51
#
DISCID=130d5114
DTITLE=Oscar Peterson - Back Home Again CD1
DYEAR=1900
DGENRE=Jazz
TTITLE0=Back Home Again In Indiana
TTITLE1=I Got Rythm
TTITLE2=Seven Come Eleven
TTITLE3=A Foggy Day
TTITLE4=Somebody Loves Me
TTITLE5=Blue And Sentimental
TTITLE6=Exactly Like You
TTITLE7=Minor Blues
TTITLE8=Runnin' Wild
TTITLE9=Jive At Five
TTITLE10=9:20 Special
TTITLE11=Easy Does It
TTITLE12=Margie
TTITLE13=Squatty Roo
TTITLE14=China Boy
TTITLE15=What's New ?
TTITLE16=Get Happy
TTITLE17=Roundalay
TTITLE18=The Astaire Blues
TTITLE19=After All
EXTD=
EXTT0=
EXTT1=
EXTT2=
EXTT3=
EXTT4=
EXTT5=
EXTT6=
EXTT7=
EXTT8=
EXTT9=
EXTT10=
EXTT11=
EXTT12=
EXTT13=
EXTT14=
EXTT15=
EXTT16=
EXTT17=
EXTT18=
EXTT19=
PLAYORDER=
